# xmcd
#
# Track frame offsets:
#	150
#	11855
#	27110
#	40320
#	50772
#	65957
#	79192
#	94300
#	109192
#	121640
#	133965
#	145280
#	158835
#	173097
#	186955
#	199110
#	212685
#	226222
#	237985
#	252545
#
# Disc length: 3544 seconds
#
# Revision: 1
# Processed by: cddbd v1.5.1PL0 Copyright (c) Steve Scherf et al.
# Submitted via: audiograbber 1.83.01
#
DISCID=280dd614
DTITLE=Luis Alberto Martinez - Cancion y Sentimiento
DYEAR=1900
DGENRE=
TTITLE0=Hoy se Casa
TTITLE1=Amigo de Qué
TTITLE2=Vestida de Novia
TTITLE3=Angustia
TTITLE4=Te vi Pasar con Otro
TTITLE5=Humo y Licor
TTITLE6=Esposa
TTITLE7=Flores Para Mi Madre
TTITLE8=El Emigrante
TTITLE9=Aquella Melodia
TTITLE10=El Ajuar
TTITLE11=Escandalo
TTITLE12=Señora
TTITLE13=Boda Gris
TTITLE14=Lagrima Seca
TTITLE15=Que Quieres tu de Mi
TTITLE16=Calabozo de mis Penas
TTITLE17=Nuestro Juramento
TTITLE18=Payaso Triste
TTITLE19=Oh Humanidad
EXTD=
EXTT0=
EXTT1=
EXTT2=
EXTT3=
EXTT4=
EXTT5=
EXTT6=
EXTT7=
EXTT8=
EXTT9=
EXTT10=
EXTT11=
EXTT12=
EXTT13=
EXTT14=
EXTT15=
EXTT16=
EXTT17=
EXTT18=
EXTT19=
PLAYORDER=
